<svg width="31" height="31" viewBox="0 0 31 31" fill="none" xmlns="http://www.w3.org/2000/svg">
<g clip-path="url(#clip0_10_149)">
<path d="M25.4917 28.779L24.8458 23.611C24.7482 22.8309 24.2115 22.1762 23.4657 21.9276L20.9748 21.0972C20.6328 20.9832 20.2575 21.0558 19.9937 21.2806L19.26 21.036C18.8432 20.897 18.5621 20.507 18.5621 20.0677V18.4217L20.7605 17.5057C21.9015 17.0304 22.6448 15.9155 22.6448 14.6793V14.1689C23.4904 14.1689 24.1758 13.4835 24.1758 12.6379C24.1758 12.2565 24.036 11.9079 23.8053 11.6399C24.2385 10.063 25.4561 5.07518 24.1758 2.94137L24.6862 0.899994C24.6862 0.899994 19.3275 1.02758 16.5207 1.92068L17.5413 0.899994C17.5413 0.899994 10.3646 0.899994 8.86595 3.45127L8.8655 3.45171C8.8655 3.45171 6.31378 3.43047 6.31378 6.51378C6.31378 7.64227 6.94323 10.4601 7.21346 11.6182C6.97149 11.8889 6.82413 12.2461 6.82413 12.6379C6.82413 13.4835 7.50958 14.1689 8.35516 14.1689V14.6793C8.35516 15.9154 9.09841 17.0303 10.2395 17.5058L12.4379 18.4218V20.0677C12.4379 20.5071 12.1568 20.8971 11.74 21.0361L11.0063 21.2806C10.7425 21.0559 10.3673 20.9832 10.0252 21.0973L7.53427 21.9276C6.78847 22.1762 6.25171 22.831 6.15424 23.6111L5.50827 28.7791C5.39402 29.6928 6.10652 30.4999 7.02744 30.4999H7.04179H23.9582H23.9725C24.8934 30.4999 25.606 29.6928 25.4917 28.779Z" fill="#FFD7A3"/>
<path d="M18.5621 18.4218L12.4379 18.4218V20.0677C12.4379 20.4351 12.2347 20.7587 11.9265 20.9391C16.2066 21.6882 18.5621 18.4218 18.5621 18.4218Z" fill="#FDC88E"/>
<path d="M7.33453 12.1276C7.33453 12.1276 6.31384 7.95078 6.31384 6.51377C6.31384 3.43047 8.86556 3.45171 8.86556 3.45171L8.86601 3.45127C10.3647 0.899994 17.5414 0.899994 17.5414 0.899994L16.5207 1.92068C19.3276 1.02758 24.6862 0.899994 24.6862 0.899994L24.1759 2.94137C25.7069 5.49309 23.6655 12.1276 23.6655 12.1276H7.33453Z" fill="#734A3E"/>
<path d="M17.5414 0.899994C17.5414 0.899994 10.3647 0.899994 8.86601 3.45127L8.86556 3.45171C8.86556 3.45171 6.31384 3.43047 6.31384 6.51377C6.31384 7.95078 7.33453 12.1276 7.33453 12.1276C7.33453 12.1276 17.9455 7.38563 24.6862 0.899994C24.6862 0.899994 19.3276 1.02758 16.5207 1.92068L17.5414 0.899994Z" fill="#623F33"/>
<path d="M22.6448 11.1069V10.0862C22.6448 8.67695 21.5023 7.53448 20.093 7.53448H10.9068C9.4976 7.53448 8.35513 8.67695 8.35513 10.0862V11.1069C7.50955 11.1069 6.8241 11.7923 6.8241 12.6379C6.8241 13.4835 7.50955 14.169 8.35513 14.169V14.6793C8.35513 15.9154 9.09838 17.0303 10.2394 17.5058L13.537 18.8798C14.1589 19.139 14.8261 19.2724 15.4999 19.2724C16.1737 19.2724 16.8407 19.1389 17.4627 18.8798L20.7604 17.5058C21.9015 17.0304 22.6448 15.9155 22.6448 14.6793V14.169C23.4903 14.169 24.1758 13.4835 24.1758 12.6379C24.1758 11.7923 23.4903 11.1069 22.6448 11.1069Z" fill="#FFE1B2"/>
<path d="M11.9276 13.1482C11.6469 13.1482 11.4172 12.9186 11.4172 12.6379V12.1275C11.4172 11.8468 11.6469 11.6172 11.9276 11.6172C12.2083 11.6172 12.4379 11.8468 12.4379 12.1275V12.6379C12.4379 12.9186 12.2083 13.1482 11.9276 13.1482Z" fill="#623F33"/>
<path d="M19.0724 13.1482C18.7917 13.1482 18.562 12.9186 18.562 12.6379V12.1275C18.562 11.8468 18.7917 11.6172 19.0724 11.6172C19.353 11.6172 19.5827 11.8468 19.5827 12.1275V12.6379C19.5827 12.9186 19.353 13.1482 19.0724 13.1482Z" fill="#623F33"/>
<path d="M15.5 16.7347C14.5927 16.7347 13.744 16.5114 13.1716 16.1219C12.9386 15.9635 12.878 15.646 13.0368 15.413C13.195 15.1803 13.5128 15.1197 13.7457 15.2782C14.1469 15.5511 14.8028 15.7141 15.5 15.7141C16.1973 15.7141 16.8531 15.5511 17.2543 15.2782C17.4878 15.1192 17.8048 15.18 17.9633 15.413C18.122 15.646 18.0615 15.9635 17.8285 16.1219C17.2561 16.5114 16.4074 16.7347 15.5 16.7347Z" fill="#E4B07B"/>
<path d="M25.4917 28.779L24.8458 23.611C24.7483 22.8309 24.2115 22.1762 23.4657 21.9276L20.9748 21.0972C20.541 20.9526 20.053 21.1071 19.808 21.4931C18.9033 22.9185 17.3132 23.8654 15.5 23.8654C13.6867 23.8654 12.0967 22.9185 11.192 21.4931C10.947 21.1071 10.459 20.9526 10.0252 21.0972L7.53427 21.9276C6.78847 22.1762 6.25171 22.8309 6.15424 23.611L5.50827 28.779C5.39402 29.6928 6.10658 30.4999 7.0275 30.4999H23.9726C24.8934 30.4999 25.606 29.6928 25.4917 28.779Z" fill="#00BEA4"/>
<path d="M6.57967 22.6003C6.35308 22.8872 6.20138 23.2338 6.15424 23.611L5.50827 28.779C5.39402 29.6928 6.10658 30.5 7.0275 30.5H9.88619V27.1784C9.88619 26.6874 9.70923 26.2129 9.38778 25.8418L6.57967 22.6003Z" fill="#00AB9A"/>
<path d="M24.4203 22.6003C24.6469 22.8872 24.7986 23.2338 24.8457 23.611L25.4917 28.779C25.6059 29.6928 24.8934 30.5 23.9725 30.5H21.1138V27.1784C21.1138 26.6874 21.2907 26.2129 21.6122 25.8418L24.4203 22.6003Z" fill="#00AB9A"/>
<path d="M11.0342 16.4478C10.6207 16.0045 10.3966 15.4194 10.3966 14.8131V9.02966C12.0209 8.90788 17.1423 8.46497 20.0931 7.53448H10.9068C10.7312 7.53448 10.561 7.55496 10.3965 7.59069V7.5859C9.23184 7.82238 8.35513 8.85175 8.35513 10.0862V11.1069C7.50955 11.1069 6.8241 11.7923 6.8241 12.6379C6.8241 13.4835 7.50955 14.169 8.35513 14.169V14.6793C8.35513 15.9155 9.09838 17.0304 10.2394 17.5058L13.5369 18.8798C13.6983 18.947 13.863 19.005 14.0298 19.0552C12.5725 17.9891 11.6025 17.0571 11.0342 16.4478Z" fill="#FFD7A3"/>
</g>
<defs>
<clipPath id="clip0_10_149">
<rect width="29.6" height="29.6" fill="white" transform="translate(0.699951 0.899994)"/>
</clipPath>
</defs>
</svg>
