<svg width="31" height="31" viewBox="0 0 31 31" fill="none" xmlns="http://www.w3.org/2000/svg">
<g clip-path="url(#clip0_10_738)">
<path d="M27.7482 11.1069C27.7482 11.1069 25.6431 11.3621 24.6862 8.04482C23.3659 3.46779 20.4324 0.899994 15.5 0.899994C10.5675 0.899994 7.63401 3.46779 6.31375 8.04482C5.35686 11.3621 3.25168 11.1069 3.25168 11.1069C3.25168 11.1069 2.10341 13.6586 4.78272 15.1896H3.76203C3.76203 15.1896 4.38248 18.2883 7.50688 18.7095C7.90399 19.6067 9.14623 20.8034 12.9482 20.8034H15.5H18.0517C21.8537 20.8034 23.0959 19.6067 23.493 18.7095C26.6174 18.2883 27.2379 15.1896 27.2379 15.1896H26.2172C28.8965 13.6586 27.7482 11.1069 27.7482 11.1069Z" fill="#9D6E48"/>
<path d="M20.6034 11.1069C14.2879 7.91723 14.6706 2.30344 15.5 0.899994C10.5676 0.899994 7.63401 3.46779 6.31375 8.04482C5.35686 11.3621 3.25168 11.1069 3.25168 11.1069C3.25168 11.1069 2.10341 13.6586 4.78272 15.1896H3.76203C3.76203 15.1896 4.38248 18.2883 7.50687 18.7095C7.90399 19.6067 9.14623 20.8034 12.9482 20.8034L20.6034 11.1069Z" fill="#8D5F3D"/>
<path d="M24.9654 28.7667L24.3792 24.3708C24.2541 23.4323 23.6196 22.6402 22.731 22.3133L19.2599 21.0362C18.8431 20.8972 18.562 20.5072 18.562 20.0679V18.4219L20.7604 17.5059C21.9015 17.0304 22.6448 15.9155 22.6448 14.6793V14.169C23.4903 14.169 24.1758 13.4835 24.1758 12.6379C24.1758 11.7924 23.4903 11.1069 22.6448 11.1069V10.0862C22.6448 8.67689 21.5023 7.53448 20.093 7.53448H10.9068C9.4975 7.53448 8.3551 8.67696 8.3551 10.0862V11.1069C7.50952 11.1069 6.82406 11.7924 6.82406 12.6379C6.82406 13.4835 7.50952 14.169 8.3551 14.169V14.6793C8.3551 15.9155 9.09835 17.0304 10.2394 17.5059L12.4379 18.4219V20.0678C12.4379 20.5071 12.1567 20.8972 11.74 21.0361L8.26885 22.3132C7.38027 22.6402 6.74579 23.4322 6.62062 24.3708L6.03449 28.7666C5.91214 29.6845 6.62611 30.5 7.55207 30.5H15.4999H23.4478C24.3737 30.5 25.0878 29.6845 24.9654 28.7667Z" fill="#F6B47B"/>
<path d="M12.4379 18.4431V20.0678C12.4379 20.4309 12.2454 20.76 11.9434 20.9418C16.0104 21.6445 18.335 18.7217 18.5462 18.443H12.4379V18.4431Z" fill="#E2A071"/>
<path d="M22.6448 11.1069V10.0862C22.6448 8.67689 21.5023 7.53448 20.093 7.53448H10.9068C9.49751 7.53448 8.3551 8.67696 8.3551 10.0862V11.1069C7.50952 11.1069 6.82407 11.7924 6.82407 12.6379C6.82407 13.4835 7.50952 14.169 8.3551 14.169V14.6793C8.3551 15.9155 9.09835 17.0304 10.2394 17.5059L13.537 18.8798C14.1589 19.139 14.8261 19.2724 15.4999 19.2724C16.1736 19.2724 16.8407 19.139 17.4627 18.8798L20.7604 17.5058C21.9015 17.0304 22.6448 15.9155 22.6448 14.6793V14.169C23.4903 14.169 24.1758 13.4835 24.1758 12.6379C24.1758 11.7924 23.4903 11.1069 22.6448 11.1069Z" fill="#FDC88E"/>
<path d="M11.9275 13.1483C11.6468 13.1483 11.4172 12.9186 11.4172 12.6379V12.1276C11.4172 11.8469 11.6468 11.6172 11.9275 11.6172C12.2082 11.6172 12.4379 11.8469 12.4379 12.1276V12.6379C12.4379 12.9186 12.2082 13.1483 11.9275 13.1483Z" fill="#623F33"/>
<path d="M15.4999 16.7346C14.5926 16.7346 13.7439 16.5113 13.1715 16.1219C12.9385 15.9634 12.8779 15.6459 13.0367 15.413C13.1949 15.1802 13.5127 15.1196 13.7456 15.2782C14.1468 15.551 14.8027 15.714 15.4999 15.714C16.1972 15.714 16.8531 15.551 17.2543 15.2782C17.4877 15.1192 17.8047 15.18 17.9632 15.413C18.1219 15.6459 18.0614 15.9634 17.8284 16.1219C17.256 16.5113 16.4073 16.7346 15.4999 16.7346Z" fill="#E2A071"/>
<path d="M21.3585 21.7387L19.5221 24.6768C19.2423 25.1245 18.7517 25.3964 18.2238 25.3964H12.7761C12.2482 25.3964 11.7576 25.1245 11.4778 24.6768L9.64143 21.7387C9.49394 21.5027 9.18467 21.4284 8.94608 21.5715L7.26973 22.5773C7.02496 22.7242 6.94821 23.0434 7.09953 23.2855L9.37579 26.9275H21.6241L23.9003 23.2854C24.0517 23.0433 23.9749 22.7242 23.7301 22.5773L22.0538 21.5715C21.8153 21.4284 21.5059 21.5028 21.3585 21.7387Z" fill="#F23F44"/>
<path d="M21.6241 26.9276H9.37579V30.5H21.6241V26.9276Z" fill="#FF4F4F"/>
<path d="M11.0342 16.4478C10.6206 16.0045 10.3965 15.4194 10.3965 14.8132V9.39954C12.1695 10.6421 14.6222 11.6138 19.2 11.8724L18.7534 10.3414C18.7534 10.3414 15.5792 8.55683 14.0327 7.53448H10.9068C10.7319 7.53448 10.5614 7.55286 10.3965 7.58641V7.5859C10.3572 7.59388 10.3183 7.60293 10.2797 7.6127C10.2762 7.61359 10.2725 7.61423 10.2689 7.61512C10.268 7.61537 10.2672 7.61608 10.2663 7.61633C9.16719 7.90059 8.3551 8.89825 8.3551 10.0862V11.1069C7.50952 11.1069 6.82407 11.7924 6.82407 12.6379C6.82407 13.4835 7.50952 14.169 8.3551 14.169V14.6793C8.3551 15.9155 9.09835 17.0304 10.2394 17.5059L13.5369 18.8798C13.6983 18.9471 13.863 19.005 14.0298 19.0552C12.5725 17.9891 11.6025 17.0572 11.0342 16.4478Z" fill="#F6B47B"/>
<path d="M19.0724 13.1483C18.7917 13.1483 18.562 12.9186 18.562 12.6379V12.1276C18.562 11.8469 18.7917 11.6172 19.0724 11.6172C19.353 11.6172 19.5827 11.8469 19.5827 12.1276V12.6379C19.5827 12.9186 19.353 13.1483 19.0724 13.1483Z" fill="#623F33"/>
<path d="M20.6034 11.1069L20.0931 10.0862C20.0931 10.0862 21.7079 11.105 22.7086 11.105V7.2793H10.6615C12.5898 9.12553 14.994 11.1069 20.6034 11.1069Z" fill="#9D6E48"/>
<path d="M20.6034 11.1069C18.4591 10.0239 17.0877 8.6615 16.243 7.2793H10.6614C12.5898 9.12553 14.9939 11.1069 20.6034 11.1069Z" fill="#8D5F3D"/>
</g>
<defs>
<clipPath id="clip0_10_738">
<rect width="29.6" height="29.6" fill="white" transform="translate(0.699951 0.899994)"/>
</clipPath>
</defs>
</svg>
