<svg width="31" height="31" viewBox="0 0 31 31" fill="none" xmlns="http://www.w3.org/2000/svg">
<g clip-path="url(#clip0_10_779)">
<path d="M25.6981 27.8766L25.6518 27.4597C25.6335 27.2948 25.4849 27.1759 25.32 27.1942L25.294 27.1971L24.8457 23.611C24.7482 22.8309 24.2115 22.1762 23.4657 21.9276L20.9747 21.0972C20.6327 20.9832 20.2574 21.0558 19.9937 21.2806L19.2599 21.036C18.8431 20.897 18.562 20.507 18.562 20.0677V18.4217L20.7604 17.5057C21.9015 17.0304 22.6448 15.9155 22.6448 14.6793V14.1689C23.4903 14.1689 24.1758 13.4835 24.1758 12.6379C24.1758 12.3825 24.113 12.142 24.0023 11.9303C24.1136 11.6783 24.1758 11.3999 24.1758 11.1069C24.1758 10.9002 24.1359 10.7047 24.0788 10.5167C24.4534 10.1467 24.6861 9.63357 24.6861 9.06549C24.6861 8.85881 24.6463 8.66334 24.5892 8.47535C24.9638 8.10528 25.1965 7.5922 25.1965 7.02412C25.1965 6.04228 24.5029 5.2235 23.5792 5.0281C23.6298 4.85031 23.6655 4.66639 23.6655 4.4724C23.6655 3.34499 22.7515 2.43103 21.6241 2.43103C21.2007 2.43103 20.8075 2.56001 20.4814 2.78074C20.2028 1.98479 19.4531 1.41034 18.562 1.41034C18.0586 1.41034 17.6038 1.59948 17.2478 1.90154C16.8918 1.30425 16.2459 0.899994 15.5 0.899994C14.7541 0.899994 14.1083 1.30425 13.7522 1.90154C13.3962 1.59948 12.9413 1.41034 12.438 1.41034C11.5469 1.41034 10.7972 1.98479 10.5186 2.78074C10.1924 2.56001 9.79922 2.43103 9.37589 2.43103C8.24848 2.43103 7.33452 3.34499 7.33452 4.4724C7.33452 4.66639 7.37024 4.85031 7.42076 5.0281C6.49704 5.2235 5.80342 6.04228 5.80342 7.02412C5.80342 7.5922 6.0362 8.10528 6.41073 8.47535C6.35364 8.66334 6.31377 8.85881 6.31377 9.06549C6.31377 9.63357 6.54655 10.1467 6.92107 10.5167C6.86398 10.7047 6.82411 10.9002 6.82411 11.1069C6.82411 11.3999 6.88631 11.6783 6.99756 11.9303C6.88701 12.142 6.82411 12.3825 6.82411 12.6379C6.82411 13.4835 7.50956 14.1689 8.35514 14.1689V14.6793C8.35514 15.9154 9.09839 17.0303 10.2395 17.5058L12.4379 18.4218V20.0677C12.4379 20.5071 12.1568 20.8971 11.74 21.0361L11.0062 21.2806C10.7425 21.0558 10.3672 20.9832 10.0252 21.0973L7.53425 21.9276C6.78845 22.1762 6.2517 22.831 6.15416 23.6111L5.70588 27.1971L5.67992 27.1942C5.51501 27.1759 5.36644 27.2948 5.34813 27.4598L5.30182 27.8767C5.28351 28.0416 5.40236 28.1902 5.56726 28.2085L6.31377 28.2914V29.4792C6.31377 30.0429 6.77078 30.4999 7.33445 30.4999H9.88617H21.1137H23.6655C24.2292 30.4999 24.6861 30.0429 24.6861 29.4792V28.2914L25.4326 28.2084C25.5975 28.1901 25.7165 28.0415 25.6981 27.8766Z" fill="#C38762"/>
<path d="M24.5892 8.47534C24.9637 8.10528 25.1965 7.5922 25.1965 7.02412C25.1965 6.04228 24.5028 5.2235 23.5792 5.0281C23.6298 4.85031 23.6654 4.66639 23.6654 4.4724C23.6654 3.34499 22.7515 2.43103 21.6241 2.43103C21.2007 2.43103 20.8074 2.56001 20.4813 2.78074C20.2028 1.98479 19.4531 1.41034 18.562 1.41034C18.0586 1.41034 17.6038 1.59948 17.2478 1.90154C16.8918 1.30425 16.2459 0.899994 15.5 0.899994C14.7541 0.899994 14.1083 1.30425 13.7521 1.90154C13.3962 1.59948 12.9413 1.41034 12.4379 1.41034C11.5469 1.41034 10.7972 1.98479 10.5186 2.78074C10.1924 2.56001 9.79921 2.43103 9.37588 2.43103C8.24846 2.43103 7.3345 3.34499 7.3345 4.4724C7.3345 4.66639 7.37022 4.85031 7.42075 5.0281C6.49703 5.2235 5.80341 6.04228 5.80341 7.02412C5.80341 7.5922 6.03619 8.10528 6.41071 8.47534C6.35362 8.66334 6.31375 8.8588 6.31375 9.06549C6.31375 9.63357 6.54653 10.1467 6.92106 10.5167C6.86396 10.7047 6.82409 10.9002 6.82409 11.1069C6.82409 12.2343 7.73805 13.1482 8.86547 13.1482C8.86566 13.1482 8.86585 13.1482 8.86611 13.1482H22.1338C22.134 13.1482 22.1342 13.1482 22.1345 13.1482C23.2619 13.1482 24.1758 12.2343 24.1758 11.1069C24.1758 10.9002 24.136 10.7047 24.0789 10.5167C24.4534 10.1467 24.6862 9.63357 24.6862 9.06549C24.6861 8.8588 24.6463 8.66334 24.5892 8.47534Z" fill="#623F33"/>
<path d="M21.1137 30.5001V27.9484H25.3878L24.8457 23.6112C24.7481 22.8311 24.2114 22.1763 23.4656 21.9277L20.9746 21.0974C20.5408 20.9528 20.0528 21.1072 19.8078 21.4933C18.9032 22.9187 17.3132 23.8656 15.5 23.8656C13.6868 23.8656 12.0967 22.9186 11.1921 21.4932C10.947 21.1072 10.459 20.9527 10.0252 21.0973L7.53429 21.9277C6.78849 22.1763 6.25173 22.831 6.15419 23.6111L5.66879 27.4943L9.88621 27.9483V30.5H21.1138V30.5001H21.1137Z" fill="#FFD739"/>
<path d="M18.5621 18.4218L12.4379 17.0608V20.0677C12.4379 20.4351 12.2347 20.7587 11.9265 20.9391C16.2066 21.6883 18.5621 18.4218 18.5621 18.4218Z" fill="#A46D4D"/>
<path d="M22.6448 11.1069V9.57583C22.6448 8.16658 21.5023 6.51376 20.093 6.51376H10.9068C9.49753 6.51376 8.35513 8.16658 8.35513 9.57583V11.1069C7.50955 11.1069 6.8241 11.7924 6.8241 12.6379C6.8241 13.4835 7.50955 14.1689 8.35513 14.1689V14.6793C8.35513 15.9154 9.09838 17.0303 10.2394 17.5058L13.537 18.8798C14.159 19.139 14.8262 19.2724 15.4999 19.2724C16.1737 19.2724 16.8408 19.1389 17.4628 18.8798L20.7605 17.5057C21.9015 17.0304 22.6448 15.9154 22.6448 14.6793V14.1689C23.4903 14.1689 24.1758 13.4835 24.1758 12.6379C24.1758 11.7923 23.4903 11.1069 22.6448 11.1069Z" fill="#D29771"/>
<path d="M11.9276 13.1482C11.6469 13.1482 11.4173 12.9186 11.4173 12.6379V12.1276C11.4173 11.8469 11.6469 11.6172 11.9276 11.6172C12.2083 11.6172 12.438 11.8469 12.438 12.1276V12.6379C12.438 12.9186 12.2082 13.1482 11.9276 13.1482Z" fill="#623F33"/>
<path d="M19.0723 13.1482C18.7916 13.1482 18.562 12.9186 18.562 12.6379V12.1276C18.562 11.8469 18.7916 11.6172 19.0723 11.6172C19.353 11.6172 19.5827 11.8469 19.5827 12.1276V12.6379C19.5827 12.9186 19.353 13.1482 19.0723 13.1482Z" fill="#623F33"/>
<path d="M15.5 16.7346C14.5926 16.7346 13.7439 16.5113 13.1715 16.1219C12.9386 15.9634 12.878 15.6459 13.0367 15.4129C13.1949 15.1802 13.5127 15.1196 13.7457 15.2781C14.1469 15.551 14.8027 15.714 15.5 15.714C16.1972 15.714 16.8531 15.551 17.2543 15.2781C17.4878 15.1192 17.8047 15.1799 17.9632 15.4129C18.1219 15.6459 18.0614 15.9634 17.8284 16.1219C17.2561 16.5113 16.4073 16.7346 15.5 16.7346Z" fill="#A46D4D"/>
<path d="M9.88625 28.3335V27.1785C9.88625 26.6875 9.70929 26.213 9.38784 25.8419L6.57974 22.6003C6.35314 22.8872 6.20144 23.2338 6.1543 23.611L5.62125 27.8754C6.43288 27.9241 8.59189 28.1771 9.88625 28.3335Z" fill="#FFC33D"/>
<path d="M9.88623 27.6616L5.67998 27.1942C5.51501 27.1759 5.3665 27.2948 5.34813 27.4597L5.30182 27.8766C5.28351 28.0415 5.40236 28.1901 5.56726 28.2084L9.88623 28.6883V27.6616Z" fill="#FFB440"/>
<path d="M21.1137 28.3335V27.1785C21.1137 26.6875 21.2907 26.213 21.6121 25.8419L24.4202 22.6003C24.6468 22.8872 24.7985 23.2338 24.8457 23.611L25.3787 27.8754C24.5671 27.9241 22.408 28.1771 21.1137 28.3335Z" fill="#FFC33D"/>
<path d="M21.1137 27.6616L25.32 27.1942C25.4849 27.1759 25.6334 27.2948 25.6518 27.4597L25.6981 27.8766C25.7164 28.0415 25.5976 28.1901 25.4327 28.2084L21.1137 28.6883V27.6616Z" fill="#FFB440"/>
<path d="M8.35513 6.57758V11.1069C7.50955 11.1069 6.8241 11.7923 6.8241 12.6379C6.8241 13.4835 7.50955 14.1689 8.35513 14.1689V14.6793C8.35513 15.9155 9.09838 17.0304 10.2394 17.5058L13.5369 18.8798C13.6983 18.947 13.863 19.005 14.0298 19.0552C12.5725 17.9891 11.6025 17.0572 11.0341 16.4478C10.6206 16.0045 10.3965 15.4194 10.3965 14.8131V9.05102C10.9397 8.99048 11.4246 8.73952 11.7861 8.36761C12.0645 8.48754 12.3707 8.55516 12.693 8.55516C13.3946 8.55516 14.0148 8.2339 14.436 7.73823C14.7466 7.92916 15.1086 8.04481 15.4999 8.04481C16.024 8.04481 16.497 7.84157 16.8585 7.51699C17.2547 7.84182 17.7546 8.04481 18.3068 8.04481C19.2818 8.04481 20.1089 7.43527 20.4404 6.57758H8.35513Z" fill="#C38762"/>
<path d="M22.6448 7.02413C22.6116 7.02413 22.5806 7.03178 22.548 7.03389C22.6072 6.87083 22.6448 6.69725 22.6448 6.51378C22.6448 5.66821 21.9593 4.98275 21.1137 4.98275C20.928 4.98275 20.7523 5.02084 20.5876 5.08137C20.5057 3.88749 19.5216 2.94138 18.3068 2.94138C17.2611 2.94138 16.3885 3.64469 16.111 4.60095C15.9236 4.5191 15.7175 4.47241 15.4999 4.47241C14.9271 4.47241 14.4338 4.79067 14.1713 5.25642C13.8499 4.7834 13.308 4.47241 12.6931 4.47241C11.9623 4.47241 11.336 4.91245 11.0594 5.54094C10.7786 5.20271 10.3601 4.98275 9.88622 4.98275C9.31738 4.98275 8.82139 5.29317 8.55742 5.75363C8.52233 5.75012 8.4868 5.74827 8.45082 5.74827C7.86947 5.74827 7.39823 6.21951 7.39823 6.80085C7.39823 6.97233 7.44008 7.13372 7.51287 7.27681C7.09802 7.55067 6.8241 8.02083 6.8241 8.55516C6.8241 9.40073 7.50955 10.0862 8.35513 10.0862C9.2007 10.0862 9.88616 9.40073 9.88616 8.55516C9.88616 8.37169 9.84859 8.19811 9.78939 8.03505C9.82205 8.03716 9.85305 8.04481 9.88616 8.04481C10.459 8.04481 10.9523 7.72655 11.2148 7.2608C11.5362 7.73382 12.0782 8.04481 12.6931 8.04481C13.4239 8.04481 14.0501 7.60477 14.3267 6.97628C14.6075 7.31451 15.0259 7.53447 15.4999 7.53447C16.0079 7.53447 16.4547 7.28427 16.7333 6.90337C17.1447 7.29212 17.6961 7.53447 18.3068 7.53447C18.8278 7.53447 19.3028 7.35432 19.6882 7.06196C19.9091 7.63584 20.462 8.04481 21.1137 8.04481C21.1469 8.04481 21.1778 8.03716 21.2105 8.03505C21.1513 8.19811 21.1137 8.37169 21.1137 8.55516C21.1137 9.40073 21.7992 10.0862 22.6448 10.0862C23.4903 10.0862 24.1758 9.40073 24.1758 8.55516C24.1758 7.70958 23.4903 7.02413 22.6448 7.02413Z" fill="#623F33"/>
</g>
<defs>
<clipPath id="clip0_10_779">
<rect width="29.6" height="29.6" fill="white" transform="translate(0.699951 0.899994)"/>
</clipPath>
</defs>
</svg>
