<svg width="31" height="31" viewBox="0 0 31 31" fill="none" xmlns="http://www.w3.org/2000/svg">
<g clip-path="url(#clip0_10_822)">
<path d="M25.1575 27.3098L25.0601 26.9763C25.0131 26.8152 24.8562 26.7165 24.6948 26.737L24.5921 25.9666L24.3793 24.3708C24.3793 24.3708 24.3793 24.3707 24.3793 24.3706L24.3546 24.1852C24.2429 23.3469 23.7234 22.6186 22.868 22.1909L21.8656 21.6897C21.7032 21.6086 21.5793 21.713 21.46 21.8456L19.2601 21.0362C18.8434 20.8973 18.5622 20.5073 18.5622 20.0679V18.4219L20.7606 17.5059C21.9015 17.0304 22.6448 15.9155 22.6448 14.6793V10.0862C22.6448 8.67689 21.5023 6.51379 20.0931 6.51379H10.9069C9.49755 6.51379 8.35514 8.67689 8.35514 10.0862V14.6793C8.35514 15.9154 9.09839 17.0303 10.2395 17.5059L12.4379 18.4219V20.0678C12.4379 20.5071 12.1568 20.8972 11.74 21.0361L9.5401 21.8455C9.42087 21.7129 9.29692 21.6084 9.13456 21.6896L8.13212 22.1908C7.27665 22.6186 6.75725 23.3468 6.64548 24.1851L6.6208 24.3705C6.6208 24.3706 6.6208 24.3706 6.6208 24.3707L6.40805 25.9665L6.30534 26.7369C6.14394 26.7164 5.98708 26.8151 5.94 26.9762L5.84265 27.3096C5.79053 27.4882 5.89305 27.6751 6.0716 27.7272L6.16952 27.7558L6.03479 28.7666C5.91218 29.6845 6.62616 30.5 7.55211 30.5H23.4478C24.3738 30.5 25.0878 29.6845 24.9654 28.7666L24.8307 27.7559L24.9286 27.7273C25.1071 27.6753 25.2096 27.4883 25.1575 27.3098Z" fill="#F6B47B"/>
<path d="M12.4379 18.3155V20.0679C12.4379 20.431 12.2454 20.7601 11.9433 20.9419C16.0104 21.6446 18.335 18.5942 18.5462 18.3155H12.4379Z" fill="#E2A071"/>
<path d="M20.7605 17.5059L17.4627 18.8799C16.8408 19.139 16.1737 19.2725 15.4999 19.2725C14.8261 19.2725 14.159 19.139 13.537 18.8799L10.2395 17.5059C9.09839 17.0304 8.35513 15.9155 8.35513 14.6793V10.0862C8.35513 8.67695 9.4976 6.51379 10.9069 6.51379H20.0931C21.5023 6.51379 22.6448 8.67695 22.6448 10.0862V14.6793C22.6448 15.9155 21.9015 17.0304 20.7605 17.5059Z" fill="#FDC88E"/>
<path d="M11.9276 13.1483C11.6469 13.1483 11.4172 12.9186 11.4172 12.6379V12.1276C11.4172 11.8469 11.6469 11.6172 11.9276 11.6172C12.2082 11.6172 12.4379 11.8469 12.4379 12.1276V12.6379C12.4379 12.9186 12.2082 13.1483 11.9276 13.1483Z" fill="#623F33"/>
<path d="M19.0724 13.1483C18.7917 13.1483 18.562 12.9186 18.562 12.6379V12.1276C18.562 11.8469 18.7917 11.6172 19.0724 11.6172C19.353 11.6172 19.5827 11.8469 19.5827 12.1276V12.6379C19.5827 12.9186 19.353 13.1483 19.0724 13.1483Z" fill="#623F33"/>
<path d="M15.5 16.7346C14.5927 16.7346 13.7439 16.5113 13.1715 16.1219C12.9386 15.9634 12.878 15.6459 13.0367 15.413C13.1949 15.1802 13.5127 15.1196 13.7457 15.2782C14.1469 15.551 14.8027 15.714 15.5 15.714C16.1972 15.714 16.8531 15.551 17.2543 15.2782C17.4878 15.1192 17.8048 15.18 17.9632 15.413C18.1219 15.6459 18.0614 15.9634 17.8284 16.1219C17.2561 16.5113 16.4073 16.7346 15.5 16.7346Z" fill="#E2A071"/>
<path d="M8.35513 10.6694V14.6794C8.35513 15.9155 9.09839 17.0305 10.2395 17.5059L13.5369 18.8799C13.6983 18.9472 13.863 19.0051 14.0298 19.0553C12.5726 17.9892 11.6025 17.0573 11.0341 16.4479C10.6206 16.0046 10.3965 15.4195 10.3965 14.8132V11.961C11.8574 11.4511 15.6368 9.77626 15.6892 7.02429C15.6942 6.7642 15.6902 6.53231 15.6788 6.32556C13.2769 9.60867 9.94939 10.4696 8.35513 10.6694Z" fill="#F6B47B"/>
<path d="M24.3353 17.8748C24.3353 16.7935 23.4438 16.3365 23.4438 15.4157C23.4438 14.4948 24.6022 14.2471 24.6022 12.8666C24.6022 11.9438 24.1909 11.2273 23.9182 10.5671C25.4734 3.82637 19.6394 0.899994 18.0517 0.899994C16.3931 0.899994 15.5 1.41034 15.5 1.41034C15.5 1.41034 14.6069 0.899994 12.9482 0.899994C11.3606 0.899994 5.52654 3.82637 7.08176 10.567C6.80898 11.2273 6.39777 11.9437 6.39777 12.8666C6.39777 14.2471 7.55612 14.4948 7.55612 15.4156C7.55612 16.3365 6.66461 16.7935 6.66461 17.8748C6.66461 18.9561 7.52327 19.4797 7.80224 20.2933C7.92982 20.6654 7.78099 21.7816 7.78099 21.7816C7.78099 21.7816 8.69004 20.2817 8.2116 18.9038C7.73315 17.5259 8.28815 17.3777 8.72194 16.776C9.37582 15.869 9.28715 14.8515 8.75313 13.8626C8.40827 13.2239 8.49905 12.6069 8.98241 12.1774C9.49116 11.7254 9.61045 10.9452 9.61115 10.9403C12.0273 10.2329 15.5 8.81589 15.5 6.51379C15.5 8.81589 18.9727 10.2329 21.3887 10.9403C21.3895 10.9452 21.5088 11.7254 22.0174 12.1774C22.5008 12.6069 22.5916 13.2239 22.2467 13.8626C21.7127 14.8515 21.624 15.8691 22.2779 16.776C22.7117 17.3777 23.2667 17.5259 22.7883 18.9038C22.3098 20.2816 23.2189 21.7816 23.2189 21.7816C23.2189 21.7816 23.07 20.6653 23.1976 20.2933C23.4766 19.4797 24.3353 18.9561 24.3353 17.8748Z" fill="#6E4439"/>
<path d="M24.3545 24.1853C24.2428 23.347 23.7233 22.6187 22.8679 22.191L21.8654 21.6898C21.6801 21.5972 21.5449 21.7463 21.4096 21.9032C18.6897 25.0565 15.5001 26.4176 15.5001 26.4176H15.5H15.5C15.5 26.4176 12.3104 25.0565 9.5905 21.9032C9.45519 21.7463 9.31989 21.5972 9.13463 21.6898L8.13219 22.191C7.27672 22.6188 6.75732 23.347 6.64555 24.1853L6.23013 27.3007C7.57821 27.7649 9.88612 28.4588 9.88612 28.4588V30.5001H21.1137V28.4588C21.1137 28.4588 23.4216 27.7649 24.7699 27.3007L24.3545 24.1853Z" fill="#57B9DD"/>
<path d="M9.87348 28.3027C9.84228 27.6958 9.63967 27.1095 9.27369 26.6214L6.87782 23.4269C6.76216 23.6651 6.68089 23.9187 6.64529 24.1852L6.24078 27.2193L9.87348 28.3027Z" fill="#43A0C5"/>
<path d="M5.84244 27.3099C5.79032 27.4884 5.89283 27.6754 6.07132 27.7275L9.88615 28.8403V28.4587C9.88615 28.2176 9.84826 27.9815 9.79295 27.7498L6.35731 26.7476C6.17882 26.6955 5.9919 26.798 5.93985 26.9765L5.84244 27.3099Z" fill="#258CAC"/>
<path d="M21.1264 28.3027C21.1576 27.6958 21.3602 27.1095 21.7262 26.6214L24.122 23.4269C24.2377 23.6651 24.319 23.9187 24.3546 24.1852L24.7591 27.2193L21.1264 28.3027Z" fill="#43A0C5"/>
<path d="M25.1575 27.3099C25.2096 27.4884 25.1071 27.6754 24.9286 27.7275L21.1137 28.8403V28.4587C21.1137 28.2176 21.1516 27.9815 21.2069 27.7498L24.6426 26.7476C24.8211 26.6955 25.008 26.798 25.0601 26.9765L25.1575 27.3099Z" fill="#258CAC"/>
<path d="M12.9482 0.899994C11.3605 0.899994 5.52661 3.82637 7.08175 10.567C6.80898 11.2273 6.39777 11.9437 6.39777 12.8666C6.39777 14.2471 7.55612 14.4948 7.55612 15.4156C7.55612 16.3365 6.66461 16.7935 6.66461 17.8748C6.66461 18.9561 7.52327 19.4797 7.80223 20.2933C7.92982 20.6654 7.78099 21.7816 7.78099 21.7816C7.78099 21.7816 8.69004 20.2817 8.21159 18.9038C7.73315 17.5259 8.28814 17.3777 8.72194 16.776C9.37582 15.869 9.28714 14.8515 8.75313 13.8626C8.40827 13.2239 8.49904 12.6069 8.9824 12.1774C9.49115 11.7254 9.61045 10.9452 9.61115 10.9403L9.61064 10.9402C9.61083 10.9401 9.61096 10.9401 9.61115 10.9401C8.16943 4.3045 13.9174 1.41563 15.4999 1.41059V1.41034C15.4999 1.41034 14.6068 0.899994 12.9482 0.899994Z" fill="#5E342E"/>
</g>
<defs>
<clipPath id="clip0_10_822">
<rect width="29.6" height="29.6" fill="white" transform="translate(0.699951 0.899994)"/>
</clipPath>
</defs>
</svg>
